# xmcd
#
# Track frame offsets:
#	150
#	14532
#	31000
#	45100
#	59280
#	73042
#	86847
#	107412
#	122122
#	137797
#
# Disc length: 2017 seconds
#
# Revision: 1
# Processed by: cddbd v1.5.2PL0 Copyright (c) Steve Scherf et al.
# Submitted via: EasyCDDAExtractor 16.0.9.1
#
DISCID=7d07df0a
DTITLE=Rocio Durcal - Super Exitos - Volumen 1
DYEAR=1980
DGENRE=Latin
TTITLE0=Tarde
TTITLE1=No Lastimes Mas
TTITLE2=Cuando Yo Quiera Has De Volver
TTITLE3=Me Gustas Mucho
TTITLE4=Fue Un Placer Conocerte
TTITLE5=Jamas Me Cansare De Ti
TTITLE6=Nuevamente Sola
TTITLE7=Fue Tan Poco Tu Cariño
TTITLE8=La Muerte Del Palomo
TTITLE9=Nadie Es Como Tu
EXTD=
EXTT0=
EXTT1=
EXTT2=
EXTT3=
EXTT4=
EXTT5=
EXTT6=
EXTT7=
EXTT8=
EXTT9=
PLAYORDER=
